<svg width="46" height="46" viewBox="0 0 46 46" fill="none" xmlns="http://www.w3.org/2000/svg">
<g clip-path="url(#clip0_120_1081)">
<path d="M22.0316 21.6783C22.0319 21.6786 22.0323 21.6789 22.0326 21.6791L30.3885 27.4951C30.4846 27.562 30.5966 27.6023 30.7132 27.6122C30.8299 27.622 30.9471 27.601 31.053 27.5512L40.0102 23.3318C40.8428 22.9521 40.7726 21.747 39.9009 21.4681L14.3441 13.2916C14.1672 13.2349 13.978 13.2286 13.7977 13.2734C13.6173 13.3183 13.4531 13.4124 13.3233 13.5454C13.1935 13.6784 13.1033 13.8448 13.0629 14.0262C13.0225 14.2075 13.0333 14.3966 13.0943 14.5721L21.8871 39.9233C22.1871 40.7881 23.3944 40.8282 23.7529 39.9875L27.7533 30.9299C27.8008 30.8227 27.8193 30.7049 27.8068 30.5884C27.7943 30.4718 27.7513 30.3606 27.6821 30.266L21.6642 22.0538C21.6275 22.0029 21.61 21.9406 21.6147 21.8781C21.6193 21.8155 21.6459 21.7566 21.6898 21.7117C21.7336 21.6668 21.7918 21.6388 21.8543 21.6326C21.9165 21.6264 21.9789 21.6423 22.0306 21.6775C22.0309 21.6777 22.0313 21.678 22.0316 21.6783Z" fill="#F2C94C"/>
</g>
<defs>
<clipPath id="clip0_120_1081">
<rect width="32" height="32" fill="white" transform="translate(22.8999 45.2515) rotate(-135.694)"/>
</clipPath>
</defs>
</svg>
