<svg width="42" height="42" viewBox="0 0 42 42" fill="none" xmlns="http://www.w3.org/2000/svg">
<path d="M28.1683 40.5187C17.356 44.4541 5.40136 38.8796 1.466 28.0672C-2.46937 17.2549 3.10517 5.30025 13.9175 1.36488C24.7298 -2.57049 36.6845 3.00405 40.6199 13.8164C44.5552 24.6287 38.9807 36.5834 28.1683 40.5187ZM26.7433 36.6034C30.897 35.0915 34.28 31.9916 36.1481 27.9854C38.0161 23.9793 38.2163 19.3952 36.7045 15.2415C35.1926 11.0878 32.0927 7.70477 28.0866 5.83668C24.0804 3.96859 19.4963 3.76844 15.3426 5.28026C11.1889 6.79209 7.80588 9.89204 5.9378 13.8982C4.06971 17.9043 3.86956 22.4884 5.38138 26.6421C6.8932 30.7958 9.99316 34.1788 13.9993 36.0469C18.0054 37.915 22.5896 38.1152 26.7433 36.6034ZM23.0006 20.2293L30.8314 17.3791L32.2565 21.2945L20.5103 25.5697L15.5225 11.8659L19.4379 10.4408L23.0006 20.2293Z" fill="white"/>
</svg>
