<svg width="24" height="30" viewBox="0 0 24 30" fill="none" xmlns="http://www.w3.org/2000/svg">
<path d="M5.33449 9.5461C5.2009 10.9711 5.10715 13.493 5.94855 14.5664C5.94855 14.5664 5.55246 11.7961 9.10324 8.32032C10.5329 6.9211 10.8634 5.01798 10.3642 3.59063C10.0806 2.78204 9.56262 2.11407 9.11262 1.64766C8.85012 1.37344 9.05168 0.921101 9.43371 0.937507C11.7446 1.04063 15.49 1.68282 17.0814 5.67657C17.7798 7.42969 17.8314 9.24141 17.4986 11.0836C17.2876 12.2602 16.5376 14.8758 18.2486 15.1969C19.4696 15.4266 20.0603 14.4563 20.3251 13.7578C20.4353 13.4672 20.8173 13.3945 21.0236 13.6266C23.0861 15.9727 23.2618 18.7359 22.8353 21.1148C22.0103 25.7133 17.3532 29.0602 12.7267 29.0602C6.94699 29.0602 2.34621 25.7531 1.15324 19.7672C0.672773 17.3508 0.916524 12.5695 4.64309 9.19454C4.91965 8.94141 5.37199 9.16641 5.33449 9.5461Z" fill="url(#paint0_radial_125_1108)"/>
<defs>
<radialGradient id="paint0_radial_125_1108" cx="0" cy="0" r="1" gradientUnits="userSpaceOnUse" gradientTransform="translate(11.5819 29.133) rotate(-179.751) scale(16.544 27.1454)">
<stop offset="0.314" stop-color="#FF9800"/>
<stop offset="0.662" stop-color="#FF6D00"/>
<stop offset="0.972" stop-color="#F44336"/>
</radialGradient>
</defs>
</svg>
