<svg width="46" height="46" viewBox="0 0 46 46" fill="none" xmlns="http://www.w3.org/2000/svg">
<path fill-rule="evenodd" clip-rule="evenodd" d="M5.87828 18.5077C5.07909 17.8131 3.86814 17.898 3.17367 18.6973C2.47933 19.4964 2.5642 20.7071 3.36323 21.4015L9.15 26.4308L10.5325 27.6328C11.3662 28.3577 12.6298 28.2693 13.3544 27.4353L14.5569 26.0513L16.1964 24.167C16.9212 23.3339 18.184 23.2459 19.0173 23.9703L21.8479 26.4308L23.2318 27.6332C24.0658 28.3579 25.3294 28.269 26.0538 27.4347L27.2548 26.0513L28.8906 24.1699C29.6153 23.3364 30.8784 23.2481 31.712 23.9726L34.5401 26.4308L35.924 27.6332C36.758 28.3579 38.0216 28.269 38.7459 27.4347L39.947 26.0513L42.4625 23.159C43.1574 22.36 43.0727 21.1488 42.2733 20.4542C41.4744 19.76 40.2639 19.8448 39.5695 20.6436L38.3667 22.0274C37.6421 22.8609 36.379 22.9494 35.5453 22.2248L30.7275 18.0376C30.227 17.6026 29.4687 17.6558 29.0338 18.1563L27.3078 20.1427C27.3074 20.1433 27.3078 20.1442 27.3085 20.1442C27.3093 20.1442 27.3097 20.145 27.3092 20.1456L25.2857 22.4743C24.7759 23.061 23.887 23.1233 23.3004 22.6135L18.6387 18.562C17.8049 17.8374 16.5417 17.9259 15.8171 18.7596L15.4367 19.1973L12.9766 22.0274C12.252 22.8609 10.9889 22.9494 10.1552 22.2248L5.87828 18.5077Z" fill="#EB0029"/>
</svg>
