<svg width="9" height="15" viewBox="0 0 9 15" fill="none" xmlns="http://www.w3.org/2000/svg">
<path d="M7.5 14.5H1.5C1.23478 14.5 0.98043 14.3946 0.792893 14.2071C0.605357 14.0196 0.5 13.7652 0.5 13.5V12H1.5V13.5H7.5V1.5H1.5V3H0.5V1.5C0.5 1.23478 0.605357 0.98043 0.792893 0.792893C0.98043 0.605357 1.23478 0.5 1.5 0.5H7.5C7.76522 0.5 8.01957 0.605357 8.20711 0.792893C8.39464 0.98043 8.5 1.23478 8.5 1.5V13.5C8.5 13.7652 8.39464 14.0196 8.20711 14.2071C8.01957 14.3946 7.76522 14.5 7.5 14.5Z" fill="#F2F2F2" stroke="#F2F2F2" stroke-width="0.5"/>
</svg>
